# Blender v2.79 (sub 0) OBJ File: 'evo 1.blend'
# www.blender.org
mtllib evo 1.mtl
o Cube.001
v -2.736710 0.220148 0.778386
v -1.776989 3.402946 0.778386
v -2.736710 0.220148 -3.649344
v -1.776989 3.402946 -3.649344
v 2.736710 0.220148 0.778386
v 1.776989 3.402946 0.778386
v 2.736710 0.220148 -3.649344
v 1.776989 3.402946 -3.649344
v -2.736710 0.220148 3.469610
v -2.736710 1.811811 3.469610
v 2.736710 0.220148 3.469610
v 2.736710 1.811811 3.469610
v -2.736710 0.220148 -5.379533
v -2.736710 2.352978 -5.379533
v 2.736710 0.220148 -5.379533
v 2.736710 2.352978 -5.379533
v -2.170368 0.440835 -6.951514
v -2.170368 2.132292 -6.951514
v 2.170368 0.440835 -6.951514
v 2.170368 2.132292 -6.951514
v -1.786680 0.220148 6.568299
v -1.914130 1.459214 6.152601
v 1.786680 0.220148 6.568299
v 1.914130 1.459214 6.152601
vn -0.9574 0.2887 0.0000
vn 0.0000 0.8549 -0.5188
vn 0.9574 0.2887 0.0000
vn -0.9438 0.2846 -0.1683
vn 0.0000 -1.0000 0.0000
vn 0.0000 1.0000 0.0000
vn 0.0000 0.8608 0.5089
vn 1.0000 0.0000 0.0000
vn 0.9408 0.0000 -0.3389
vn -1.0000 0.0000 0.0000
vn 0.9020 0.2720 0.3353
vn 0.0000 0.0000 -1.0000
vn 0.0000 -0.9903 -0.1390
vn 0.0000 0.9903 -0.1390
vn -0.9408 0.0000 -0.3389
vn 0.0000 0.3181 0.9481
vn -0.9561 0.0000 0.2931
vn 0.0000 0.9915 0.1303
vn 0.9561 0.0000 0.2931
vn 0.9438 0.2846 -0.1683
vn -0.9020 0.2720 0.3353
usemtl None
s off
f 2//1 3//1 1//1
f 4//2 16//2 14//2
f 8//3 5//3 7//3
f 1//4 10//4 2//4
f 7//5 1//5 3//5
f 4//6 6//6 8//6
f 11//5 21//5 9//5
f 5//5 9//5 1//5
f 2//7 12//7 6//7
f 5//8 12//8 11//8
f 15//9 20//9 16//9
f 3//10 14//10 13//10
f 7//11 16//11 8//11
f 3//5 15//5 7//5
f 18//12 19//12 17//12
f 13//13 19//13 15//13
f 16//14 18//14 14//14
f 14//15 17//15 13//15
f 23//16 22//16 21//16
f 9//17 22//17 10//17
f 10//18 24//18 12//18
f 11//19 24//19 23//19
f 2//1 4//1 3//1
f 4//2 8//2 16//2
f 8//3 6//3 5//3
f 1//10 9//10 10//10
f 7//5 5//5 1//5
f 4//6 2//6 6//6
f 11//5 23//5 21//5
f 5//5 11//5 9//5
f 2//7 10//7 12//7
f 5//20 6//20 12//20
f 15//9 19//9 20//9
f 3//21 4//21 14//21
f 7//8 15//8 16//8
f 3//5 13//5 15//5
f 18//12 20//12 19//12
f 13//13 17//13 19//13
f 16//14 20//14 18//14
f 14//15 18//15 17//15
f 23//16 24//16 22//16
f 9//17 21//17 22//17
f 10//18 22//18 24//18
f 11//19 12//19 24//19
